<svg width="24" height="24" viewBox="0 0 24 24" fill="none" xmlns="http://www.w3.org/2000/svg">
<path d="M15.7959 18.7041C16.0073 18.9154 16.126 19.2021 16.126 19.5009C16.126 19.7998 16.0073 20.0865 15.7959 20.2978C15.5846 20.5092 15.2979 20.6279 14.999 20.6279C14.7002 20.6279 14.4135 20.5092 14.2022 20.2978L6.70216 12.7978C6.59728 12.6933 6.51407 12.5691 6.45729 12.4324C6.40051 12.2956 6.37128 12.149 6.37128 12.0009C6.37128 11.8529 6.40051 11.7063 6.45729 11.5695C6.51407 11.4328 6.59728 11.3086 6.70216 11.2041L14.2022 3.70407C14.4135 3.49272 14.7002 3.37399 14.999 3.37399C15.2979 3.37399 15.5846 3.49273 15.7959 3.70407C16.0073 3.91541 16.126 4.20206 16.126 4.50094C16.126 4.79983 16.0073 5.08647 15.7959 5.29782L9.09373 12L15.7959 18.7041Z" fill="#2C2D2F"/>
</svg>
