<svg width="24" height="24" viewBox="0 0 24 24" fill="none" xmlns="http://www.w3.org/2000/svg">
<path d="M9.129 5.37793C9.08569 5.33048 9.05561 5.2725 9.04176 5.20977C9.02791 5.14704 9.03079 5.08178 9.05009 5.02051C9.0694 4.95925 9.10447 4.90413 9.15178 4.86068C9.19909 4.81723 9.25698 4.78696 9.31966 4.77292C10.1989 4.572 11.0981 4.47144 12 4.47317C15.1973 4.47317 18.1023 5.68868 20.4022 7.98859C22.1283 9.71468 22.9047 11.4371 22.9368 11.5095C22.9785 11.6033 23 11.7048 23 11.8074C23 11.9101 22.9785 12.0116 22.9368 12.1053C22.9047 12.1778 22.1283 13.8993 20.4022 15.6253C20.1406 15.8857 19.872 16.1323 19.5964 16.3651C19.5239 16.4267 19.4303 16.4576 19.3354 16.4515C19.2404 16.4453 19.1516 16.4025 19.0877 16.3321L9.129 5.37793ZM19.876 19.38C19.9421 19.451 19.9935 19.5345 20.0271 19.6255C20.0608 19.7166 20.076 19.8133 20.0719 19.9103C20.0679 20.0073 20.0446 20.1025 20.0035 20.1904C19.9624 20.2783 19.9043 20.3571 19.8325 20.4224C19.7606 20.4877 19.6766 20.538 19.5852 20.5706C19.4937 20.6031 19.3968 20.6172 19.2999 20.612C19.203 20.6068 19.1081 20.5824 19.0206 20.5402C18.9332 20.498 18.8551 20.4389 18.7907 20.3664L16.7667 18.1434C15.2656 18.8073 13.6413 19.1469 12 19.1399C8.80266 19.1399 5.89775 17.9244 3.59783 15.6253C1.87174 13.8993 1.09166 12.1778 1.06324 12.1053C1.02154 12.0116 1 11.9101 1 11.8074C1 11.7048 1.02154 11.6033 1.06324 11.5095C1.09166 11.4398 1.87174 9.71468 3.59783 7.98859C4.28743 7.29582 5.05668 6.68719 5.88949 6.17543L4.12399 4.23301C4.05787 4.16198 4.0065 4.07853 3.97287 3.9875C3.93924 3.89648 3.924 3.79968 3.92805 3.70272C3.9321 3.60576 3.95536 3.51057 3.99647 3.42267C4.03758 3.33476 4.09573 3.25589 4.16754 3.19063C4.23936 3.12536 4.32342 3.075 4.41484 3.04246C4.50627 3.00992 4.60324 2.99585 4.70014 3.00106C4.79704 3.00627 4.89195 3.03067 4.97935 3.07283C5.06676 3.11499 5.14493 3.17408 5.20933 3.24667L19.876 19.38ZM13.8728 14.9571L9.04283 9.64043C8.54514 10.3223 8.298 11.1551 8.34314 11.9981C8.38827 12.8411 8.72292 13.6427 9.29058 14.2676C9.85824 14.8924 10.6241 15.3023 11.4589 15.4279C12.2937 15.5535 13.1463 15.3872 13.8728 14.9571Z" fill="#595A5D"/>
</svg>
