<svg width="26" height="26" viewBox="0 0 26 26" fill="none" xmlns="http://www.w3.org/2000/svg">
<circle cx="13" cy="13" r="12" stroke="#70AC4E" stroke-width="1.84615"/>
<path d="M13 3.76923C18.0981 3.76923 22.2308 7.90184 22.2308 13C22.2308 18.0981 18.0981 22.2308 13 22.2308C7.90184 22.2308 3.76923 18.0981 3.76923 13C3.76923 7.90184 7.90184 3.76923 13 3.76923ZM15.9723 10.2031L11.8461 14.3292L10.0277 12.5108C9.89645 12.3885 9.72287 12.3219 9.54351 12.3251C9.36416 12.3282 9.19303 12.4009 9.06619 12.5277C8.93935 12.6546 8.86669 12.8257 8.86353 13.0051C8.86036 13.1844 8.92694 13.358 9.04923 13.4892L11.3569 15.7969C11.4867 15.9266 11.6627 15.9994 11.8461 15.9994C12.0296 15.9994 12.2056 15.9266 12.3354 15.7969L16.9508 11.1815C17.0188 11.1182 17.0733 11.0417 17.1112 10.9568C17.149 10.8719 17.1694 10.7802 17.171 10.6872C17.1726 10.5943 17.1555 10.502 17.1207 10.4158C17.0859 10.3295 17.0341 10.2512 16.9683 10.1855C16.9026 10.1198 16.8243 10.0679 16.7381 10.0331C16.6519 9.99829 16.5595 9.98119 16.4666 9.98283C16.3736 9.98447 16.282 10.0048 16.197 10.0427C16.1121 10.0805 16.0357 10.1351 15.9723 10.2031Z" fill="#70AC4E"/>
</svg>
